<?xml version="1.0" encoding="UTF-8"?>
<svg version="1.1" xmlns="http://www.w3.org/2000/svg" width="512" height="512">
<path d="M0 0 C6.21943003 3.46340372 10.90992265 8.63185171 15.89532471 13.64135742 C16.89685715 14.64058391 17.8988249 15.63937423 18.90118861 16.63776684 C21.64746133 19.37570179 24.38747509 22.11982597 27.12647915 24.86502981 C30.0839968 27.82707498 33.04726634 30.78335632 36.00979614 33.74038696 C41.80918431 39.53088336 47.60315432 45.32677201 53.3951979 51.124614 C58.10151087 55.83544343 62.80977193 60.5443175 67.51943207 65.25180054 C68.52480262 66.25671139 68.52480262 66.25671139 69.55048369 67.28192347 C70.91205255 68.64285289 72.2736259 70.00377781 73.63520369 71.36469829 C86.40078126 84.12457343 99.16022236 96.89057066 111.91757402 109.65866935 C122.86866234 120.6186972 133.8249896 131.57346493 144.78515625 142.52441406 C157.51061521 155.23917591 170.23283108 167.95716826 182.94986987 180.68035221 C184.30518605 182.03630549 185.6605064 183.39225459 187.01583099 184.74819946 C187.68269433 185.41537135 188.34955766 186.08254323 189.03662898 186.76993245 C193.74074705 191.47577884 198.44718496 196.17929742 203.15451813 200.88192749 C208.88796727 206.60977421 214.61785312 212.34115683 220.3431659 218.07713675 C223.26543251 221.00466803 226.18929099 223.9305617 229.11748886 226.85216141 C231.79614632 229.52487403 234.47016912 232.20213305 237.14051828 234.88314593 C238.5689798 236.3149116 240.00237346 237.74175123 241.43591619 239.16842937 C242.70081164 240.44114807 242.70081164 240.44114807 243.99126053 241.73957825 C244.72238721 242.47102963 245.45351389 243.20248102 246.20679593 243.9560976 C249.58612992 247.80787831 250.31027843 250.78788451 250.375 255.875 C250.40335938 256.88304687 250.43171875 257.89109375 250.4609375 258.9296875 C249.26700559 266.8824882 241.78160231 272.50118653 236.3653717 277.89532471 C235.36685972 278.89685925 234.36878203 279.89882694 233.37110037 280.90118861 C230.63510078 283.64746294 227.89290893 286.38747957 225.14962924 289.12647915 C222.18962554 292.08401478 219.23537167 295.04728452 216.28034973 298.00979614 C210.49361891 303.80927236 204.70142478 309.60326209 198.90714771 315.3951979 C194.19888092 320.10168169 189.49238368 324.80992802 184.78713799 329.51943207 C184.11748614 330.1896791 183.44783429 330.85992614 182.75788997 331.55048369 C181.39752957 332.91205583 180.03717036 334.27362917 178.67681234 335.63520369 C165.92189317 348.40099717 153.16046288 361.16026633 140.39705717 373.91757402 C128.71536483 385.59409369 117.04191384 397.27881306 105.37231321 408.9674162 C93.39181912 420.96726959 81.40579458 432.96157281 69.41373628 444.94986987 C62.68034174 451.68134993 55.94917933 458.41502665 49.22380257 465.15451813 C43.50039063 470.8898203 37.77178963 476.61987605 32.03636462 482.3431659 C29.10945318 485.26417294 26.1850262 488.18755941 23.26704407 491.11748886 C20.59702606 493.79831191 17.92020962 496.47214313 15.23775297 499.14051828 C13.80703882 500.5673076 12.38371706 502.00149771 10.96065193 503.43591619 C10.11018176 504.27917982 9.25971158 505.12244345 8.38346958 505.99126053 C7.65239791 506.72238721 6.92132625 507.45351389 6.16810089 508.20679593 C1.63610203 511.95514492 -2.80282399 512.45271874 -8.5 512.30859375 C-13.95303255 511.63548504 -17.0007292 509.25549408 -20.4375 504.9375 C-22.75412656 500.28418951 -22.97673941 495.04888091 -22 490 C-18.71556844 484.25983525 -14.176995 479.90288254 -9.50860596 475.26809692 C-8.64355871 474.40134083 -7.77851146 473.53458473 -6.88725066 472.6415633 C-4.49414402 470.24573786 -2.0966461 467.85446816 0.30283332 465.46503544 C2.89264523 462.88387741 5.47665729 460.29692443 8.06138611 457.7106781 C12.53741372 453.23360286 17.01708245 448.76019794 21.49925995 444.28927994 C27.97969306 437.82511545 34.45458271 431.35542158 40.92814186 424.88437401 C51.43174638 414.38514445 61.9398075 403.89038705 72.45068359 393.3984375 C82.65973496 383.20775007 92.86667924 373.01495979 103.07080078 362.81933594 C103.70000595 362.19065621 104.32921113 361.56197649 104.97748312 360.91424586 C108.13407403 357.76026507 111.2906236 354.60624291 114.44715261 351.45220017 C140.62502919 325.29504991 166.81014383 299.1451554 193 273 C192.06067182 272.99940291 191.12134365 272.99880582 190.15355098 272.99819064 C134.51409312 272.96247094 78.87468917 272.90571029 23.2352817 272.82207905 C16.55854739 272.81206127 9.88181285 272.80221257 3.20507812 272.79248047 C2.54065768 272.79150866 1.87623724 272.79053686 1.19168284 272.7895356 C-20.34968154 272.75812034 -41.89103339 272.73966001 -63.43241672 272.72790753 C-86.19357594 272.7154193 -108.95468059 272.6881913 -131.71580398 272.64538693 C-145.35388325 272.62021676 -158.99186956 272.60688529 -172.62997238 272.60857043 C-181.97487514 272.60860012 -191.31968303 272.59402252 -200.66454883 272.56783572 C-206.06066146 272.55314957 -211.45657953 272.54502119 -216.85270882 272.55419731 C-221.79010113 272.56245155 -226.72710159 272.55241962 -231.66443561 272.52766338 C-233.45321636 272.52195436 -235.24203393 272.52303421 -237.03080381 272.53148755 C-239.45833643 272.54197912 -241.88453986 272.52798938 -244.31198311 272.50780869 C-245.01015475 272.51671239 -245.70832639 272.5256161 -246.42765474 272.53478962 C-251.38557828 272.45545584 -254.15792585 271.05949285 -258 268 C-261.62833663 264.18069828 -262.31000458 261.11720994 -262.5 256 C-262.31000458 250.88279006 -261.62833663 247.81930172 -258 244 C-253.4521884 240.37851938 -249.99910541 239.41966405 -244.31198311 239.49219131 C-243.17460908 239.48273569 -243.17460908 239.48273569 -242.01425779 239.47308904 C-239.47071326 239.45681204 -236.92810863 239.46899776 -234.384552 239.48101807 C-232.54383129 239.47514327 -230.70311547 239.46751647 -228.86240852 239.458287 C-223.80217841 239.43799278 -218.74222811 239.44258956 -213.68197584 239.45119452 C-208.22596528 239.45613138 -202.77002572 239.43806439 -197.31404114 239.42277527 C-187.860489 239.39943986 -178.40701362 239.39071576 -168.95343399 239.39188385 C-155.28512173 239.39355165 -141.61691193 239.373233 -127.94862698 239.34752855 C-105.77337503 239.30642394 -83.59813616 239.28309441 -61.42285156 239.27099609 C-39.88019038 239.25920061 -18.33756364 239.23902861 3.20507812 239.20751953 C4.20117671 239.2060676 4.20117671 239.2060676 5.2173985 239.20458635 C12.54796038 239.19389105 19.87852191 239.18296648 27.20908332 239.17194796 C82.47270518 239.0890947 137.73632863 239.03512861 193 239 C192.32565644 238.32850434 192.32565644 238.32850434 191.63768977 237.64344311 C164.99358097 211.11122351 138.36253065 184.56596284 111.74837242 158.00369906 C108.55280232 154.81438251 105.35712331 151.6251751 102.16137695 148.43603516 C101.52516294 147.80113269 100.88894892 147.16623023 100.2334557 146.5120883 C89.93156424 136.23195366 79.62087455 125.96068708 69.30690648 115.69267046 C58.72410281 105.15662363 48.15080936 94.61110314 37.58628494 84.05672741 C31.06704672 77.54434992 24.54050282 71.03947547 18.0044205 64.54400283 C13.52315528 60.08916637 9.05116068 55.62516133 4.5863386 51.15384549 C2.01003916 48.57434341 -0.57014473 45.99907067 -3.16142082 43.43460655 C-5.9722168 40.65268228 -8.76336995 37.85156369 -11.55293274 35.04833984 C-12.3729662 34.24287059 -13.19299966 33.43740133 -14.03788263 32.60752392 C-18.88152301 27.69941333 -22.77815598 23.17931854 -23.08785325 15.9489193 C-22.631066 9.64815839 -19.95436635 5.85664803 -15.5 1.625 C-10.44221514 -0.72325726 -5.48314207 -0.97097307 0 0 Z " fill="#000000" transform="translate(262,0)"/>
</svg>
