<?xml version="1.0" encoding="UTF-8"?>
<svg version="1.1" xmlns="http://www.w3.org/2000/svg" width="512" height="512">
<path d="M0 0 C3.72026774 1.87623892 6.34905978 4.49062699 8.20703125 8.22265625 C9.54232535 12.52088105 9.71940006 16.94246925 8.8671875 21.34765625 C5.58275594 27.087821 1.0441825 31.44477371 -3.62420654 36.07955933 C-4.48925379 36.94631542 -5.35430104 37.81307152 -6.24556184 38.70609295 C-8.63866848 41.10191839 -11.0361664 43.49318809 -13.43564582 45.88262081 C-16.02545773 48.46377884 -18.60946979 51.05073182 -21.19419861 53.63697815 C-25.67022622 58.11405339 -30.14989495 62.58745831 -34.63207245 67.05837631 C-41.11250556 73.5225408 -47.58739521 79.99223467 -54.06095436 86.46328224 C-64.56455888 96.9625118 -75.07262 107.4572692 -85.58349609 117.94921875 C-95.79254746 128.13990618 -105.99949174 138.33269646 -116.20361328 148.52832031 C-116.83281845 149.15700004 -117.46202363 149.78567976 -118.11029562 150.43341039 C-121.26688653 153.58739118 -124.4234361 156.74141334 -127.57996511 159.89545608 C-153.75784169 186.05260634 -179.94295633 212.20250085 -206.1328125 238.34765625 C-204.72382024 238.34855188 -204.72382024 238.34855188 -203.28636348 238.34946561 C-147.64690562 238.38518531 -92.00750167 238.44194596 -36.3680942 238.5255772 C-29.69135989 238.53559498 -23.01462535 238.54544368 -16.33789062 238.55517578 C-15.67347018 238.55614759 -15.00904974 238.55711939 -14.32449534 238.55812065 C7.21686904 238.58953591 28.75822089 238.60799624 50.29960422 238.61974872 C73.06076344 238.63223695 95.82186809 238.65946495 118.58299148 238.70226932 C132.22107075 238.72743949 145.85905706 238.74077096 159.49715988 238.73908582 C168.84206264 238.73905613 178.18687053 238.75363373 187.53173633 238.77982053 C192.92784896 238.79450668 198.32376703 238.80263506 203.71989632 238.79345894 C208.65728863 238.7852047 213.59428909 238.79523663 218.53162311 238.81999287 C220.32040386 238.82570189 222.10922143 238.82462204 223.89799131 238.8161687 C226.32552393 238.80567713 228.75172736 238.81966687 231.17917061 238.83984756 C231.87734225 238.83094386 232.57551389 238.82204015 233.29484224 238.81286663 C238.25276578 238.89220041 241.02511335 240.2881634 244.8671875 243.34765625 C248.49552413 247.16695797 249.17719208 250.23044631 249.3671875 255.34765625 C249.17719208 260.46486619 248.49552413 263.52835453 244.8671875 267.34765625 C240.3193759 270.96913687 236.86629291 271.9279922 231.17917061 271.85546494 C230.42092125 271.86176869 229.6626719 271.86807244 228.88144529 271.87456721 C226.33790076 271.89084421 223.79529613 271.87865849 221.2517395 271.86663818 C219.41101879 271.87251298 217.57030297 271.88013978 215.72959602 271.88936925 C210.66936591 271.90966347 205.60941561 271.90506669 200.54916334 271.89646173 C195.09315278 271.89152487 189.63721322 271.90959186 184.18122864 271.92488098 C174.7276765 271.94821639 165.27420112 271.95694049 155.82062149 271.9557724 C142.15230923 271.9541046 128.48409943 271.97442325 114.81581448 272.0001277 C92.64056253 272.04123231 70.46532366 272.06456184 48.29003906 272.07666016 C26.74737788 272.08845564 5.20475114 272.10862764 -16.33789062 272.14013672 C-17.33398921 272.14158865 -17.33398921 272.14158865 -18.350211 272.1430699 C-25.68077288 272.1537652 -33.01133441 272.16468977 -40.34189582 272.17570829 C-95.60551768 272.25856155 -150.86914113 272.31252764 -206.1328125 272.34765625 C-205.45846894 273.01915191 -205.45846894 273.01915191 -204.77050227 273.70421314 C-178.12639347 300.23643274 -151.49534315 326.78169341 -124.88118492 353.34395719 C-121.68561482 356.53327374 -118.48993581 359.72248115 -115.29418945 362.91162109 C-114.33986843 363.86397479 -114.33986843 363.86397479 -113.3662682 364.83556795 C-103.06437674 375.11570259 -92.75368705 385.38696917 -82.43971898 395.65498579 C-71.85691531 406.19103262 -61.28362186 416.73655311 -50.71909744 427.29092884 C-44.19985922 433.80330633 -37.67331532 440.30818078 -31.137233 446.80365342 C-26.65596778 451.25848988 -22.18397318 455.72249492 -17.7191511 460.19381076 C-15.14285166 462.77331284 -12.56266777 465.34858558 -9.97139168 467.9130497 C-7.1605957 470.69497397 -4.36944255 473.49609256 -1.57987976 476.29931641 C-0.7598463 477.10478566 0.06018716 477.91025492 0.90507013 478.74013233 C5.74871051 483.64824292 9.64534348 488.16833771 9.95504075 495.39873695 C9.4982535 501.69949786 6.82155385 505.49100822 2.3671875 509.72265625 C-2.69059736 512.07091351 -7.64967043 512.31862932 -13.1328125 511.34765625 C-19.35224253 507.88425253 -24.04273515 502.71580454 -29.02813721 497.70629883 C-30.02966965 496.70707234 -31.0316374 495.70828202 -32.03400111 494.70988941 C-34.78027383 491.97195446 -37.52028759 489.22783028 -40.25929165 486.48262644 C-43.2168093 483.52058127 -46.18007884 480.56429993 -49.14260864 477.60726929 C-54.94199681 471.81677289 -60.73596682 466.02088424 -66.5280104 460.22304225 C-71.23432337 455.51221282 -75.94258443 450.80333875 -80.65224457 446.09585571 C-81.3224916 445.42591514 -81.99273864 444.75597458 -82.68329619 444.06573278 C-84.04486505 442.70480336 -85.4064384 441.34387844 -86.76801619 439.98295796 C-99.53359376 427.22308282 -112.29303486 414.45708559 -125.05038652 401.6889869 C-136.00147484 390.72895905 -146.9578021 379.77419132 -157.91796875 368.82324219 C-170.64342771 356.10848034 -183.36564358 343.39048799 -196.08268237 330.66730404 C-197.43799855 329.31135076 -198.7933189 327.95540166 -200.14864349 326.59945679 C-200.81550683 325.9322849 -201.48237016 325.26511302 -202.16944148 324.5777238 C-206.87355955 319.87187741 -211.57999746 315.16835883 -216.28733063 310.46572876 C-222.02077977 304.73788204 -227.75066562 299.00649942 -233.4759784 293.2705195 C-236.39824501 290.34298822 -239.32210349 287.41709455 -242.25030136 284.49549484 C-244.92895882 281.82278222 -247.60298162 279.1455232 -250.27333078 276.46451032 C-251.7017923 275.03274465 -253.13518596 273.60590502 -254.56872869 272.17922688 C-255.41199232 271.33074775 -256.25525595 270.48226862 -257.12407303 269.608078 C-258.22076305 268.51090092 -258.22076305 268.51090092 -259.33960843 267.39155865 C-262.71894242 263.53977794 -263.44309093 260.55977174 -263.5078125 255.47265625 C-263.53617187 254.46460938 -263.56453125 253.4565625 -263.59375 252.41796875 C-262.39939025 244.46231824 -254.91124017 238.84603888 -249.49145508 233.45233154 C-248.49222859 232.4507991 -247.49343827 231.44883135 -246.49504566 230.44646764 C-243.75711071 227.70019492 -241.01298653 224.96018116 -238.26778269 222.2211771 C-235.30573752 219.26365945 -232.34945618 216.30038991 -229.39242554 213.33786011 C-223.60192914 207.53847194 -217.80604049 201.74450193 -212.0081985 195.95245835 C-207.29736907 191.24614538 -202.588495 186.53788432 -197.88101196 181.82822418 C-197.21107139 181.15797715 -196.54113083 180.48773011 -195.85088903 179.79717256 C-194.48995961 178.4356037 -193.12903469 177.07403035 -191.76811421 175.71245256 C-179.00823907 162.94687499 -166.24224184 150.18743389 -153.47414315 137.43008223 C-142.5141153 126.47899391 -131.55934757 115.52266665 -120.60839844 104.5625 C-107.89363659 91.83704104 -95.17564424 79.11482517 -82.45246029 66.39778638 C-81.09650701 65.0424702 -79.74055791 63.68714985 -78.38461304 62.33182526 C-77.71744115 61.66496192 -77.05026927 60.99809859 -76.36288005 60.31102727 C-71.65703366 55.6069092 -66.95351508 50.90047129 -62.25088501 46.19313812 C-56.52303829 40.45968898 -50.79165567 34.72980313 -45.05567575 29.00449035 C-42.12814447 26.08222374 -39.2022508 23.15836526 -36.28065109 20.23016739 C-33.60793847 17.55150993 -30.93067945 14.87748713 -28.24966657 12.20713797 C-26.8179009 10.77867645 -25.39106127 9.34528279 -23.96438313 7.91174006 C-23.115904 7.06847643 -22.26742487 6.2252128 -21.39323425 5.35639572 C-20.29605717 4.2597057 -20.29605717 4.2597057 -19.1767149 3.14086032 C-13.74902643 -1.62108578 -6.82758588 -2.08829092 0 0 Z " fill="#000000" transform="translate(263.1328125,0.65234375)"/>
</svg>
